<?xml version="1.0" standalone="no"?>
<!DOCTYPE svg PUBLIC "-//W3C//DTD SVG 20010904//EN"
 "http://www.w3.org/TR/2001/REC-SVG-20010904/DTD/svg10.dtd">
<svg version="1.0" xmlns="http://www.w3.org/2000/svg"
 width="512.000000pt" height="512.000000pt" viewBox="0 0 512.000000 512.000000"
 preserveAspectRatio="xMidYMid meet">

<g transform="translate(0.000000,512.000000) scale(0.100000,-0.100000)"
fill="#000000" stroke="none">
<path d="M3659 4947 c-24 -12 -300 -220 -613 -461 -313 -241 -585 -448 -605
-461 -20 -13 -295 -123 -611 -245 -316 -122 -591 -230 -610 -240 -89 -45 -192
-198 -208 -306 -4 -27 -5 -607 -2 -1289 l5 -1240 34 -70 c57 -117 142 -191
356 -312 204 -116 286 -145 462 -164 223 -24 706 34 826 99 55 30 421 389 598
587 415 464 686 898 794 1269 l25 88 0 1242 c0 705 -4 1258 -10 1281 -11 52
-43 78 -204 171 -144 82 -167 87 -237 51z m289 -329 c7 -9 11 -416 12 -1248
l3 -1235 -38 -105 c-147 -416 -460 -845 -1017 -1396 l-213 -211 -115 -21
c-354 -65 -608 -74 -791 -27 -152 39 -277 130 -340 247 l-33 63 -4 1221 c-4
1146 -3 1224 13 1258 10 20 29 43 44 50 14 8 154 63 311 124 157 61 409 158
560 217 151 59 297 117 323 131 26 13 307 223 625 467 317 244 588 451 602
460 29 20 44 21 58 5z"/>
<path d="M3602 3654 c-40 -17 -1724 -987 -1777 -1024 -26 -18 -51 -49 -72 -90
l-33 -62 0 -261 c0 -298 3 -310 62 -315 39 -3 9 -20 1542 866 147 85 281 166
298 180 16 13 41 48 56 76 27 51 27 52 30 298 4 278 -2 321 -46 336 -20 7 -37
6 -60 -4z m-167 -308 c-2 -11 -7 -43 -10 -71 l-6 -50 37 55 c51 76 74 99 90
93 28 -11 12 -46 -48 -110 l-63 -65 63 8 c61 6 62 6 62 -18 0 -14 -9 -33 -20
-43 -19 -17 -26 -18 -67 -7 -25 7 -47 11 -49 9 -2 -2 1 -30 6 -63 9 -51 8 -62
-9 -84 -34 -47 -46 -33 -43 50 l3 75 -45 -66 c-48 -71 -68 -86 -86 -64 -13 16
-3 40 30 70 12 11 35 36 51 56 l28 36 -53 -5 c-63 -5 -73 5 -51 49 17 33 30
34 103 13 23 -7 23 -7 17 63 -7 64 -5 73 14 92 18 18 25 20 37 11 7 -7 12 -22
9 -34z m-461 -234 c3 -5 1 -37 -4 -72 -5 -35 -8 -66 -6 -67 2 -2 24 29 50 68
49 73 78 87 84 41 3 -16 -13 -40 -57 -85 l-61 -63 53 7 c28 3 55 5 60 2 13 -8
7 -40 -12 -64 -19 -23 -19 -23 -71 -7 l-51 17 5 -27 c17 -91 17 -104 1 -128
-8 -13 -25 -24 -36 -24 -20 0 -21 4 -14 70 4 39 5 70 2 70 -3 0 -20 -23 -38
-51 -18 -28 -39 -57 -46 -65 -23 -23 -43 -17 -43 13 0 20 16 44 58 86 l57 59
-56 -6 c-61 -8 -73 1 -59 39 15 40 33 47 80 30 23 -8 45 -15 47 -15 3 0 2 29
-2 65 -5 52 -3 71 9 90 16 25 40 33 50 17z m-464 -342 c-5 -35 -8 -66 -6 -67
2 -2 24 28 50 67 31 48 53 70 66 70 39 0 23 -42 -42 -108 l-63 -63 63 7 c60 6
62 6 62 -17 0 -12 -9 -33 -21 -45 -20 -21 -22 -22 -65 -7 -25 8 -47 14 -49 12
-1 -2 1 -31 7 -64 9 -63 0 -98 -29 -110 -28 -10 -34 6 -27 78 l6 72 -49 -70
c-50 -73 -76 -87 -81 -46 -3 18 11 39 59 87 l62 62 -62 -5 c-60 -6 -61 -5 -61
19 0 13 6 32 13 43 14 18 28 18 96 -1 l24 -7 -8 67 c-6 62 -5 70 16 92 18 20
25 22 36 12 9 -10 10 -29 3 -78z m-458 -240 c-1 -30 -5 -66 -8 -80 -3 -15 14
3 43 47 47 71 66 89 84 77 22 -13 5 -50 -51 -108 l-60 -62 53 7 c28 3 55 5 60
2 14 -8 7 -50 -13 -68 -19 -18 -23 -18 -71 -3 -46 15 -50 15 -45 0 2 -9 7 -39
11 -65 7 -55 -12 -97 -45 -97 -22 0 -23 11 -11 98 4 28 6 52 4 52 -1 0 -24
-31 -49 -70 -50 -75 -84 -93 -84 -44 0 17 18 44 58 86 l57 60 -57 -7 -58 -7 0
29 c0 17 8 37 18 47 17 15 23 15 62 1 23 -8 46 -15 50 -15 3 0 2 29 -3 65 -8
55 -7 69 8 91 9 14 23 24 33 22 14 -3 16 -14 14 -58z"/>
<path d="M3569 2621 c-30 -16 -432 -247 -894 -514 -537 -310 -855 -498 -881
-524 -68 -66 -74 -97 -74 -390 0 -292 5 -312 70 -313 16 0 189 94 430 233
1182 681 1387 801 1406 818 12 11 34 43 50 72 l29 52 3 245 c4 267 1 301 -29
331 -26 26 -47 24 -110 -10z m-136 -263 c2 -7 0 -42 -4 -77 -5 -35 -8 -65 -6
-67 1 -1 22 28 47 66 44 68 63 86 81 74 22 -13 5 -50 -52 -109 l-60 -63 60 5
c55 5 61 4 61 -13 0 -28 -28 -64 -49 -64 -10 0 -35 7 -56 16 l-37 15 7 -43 c3
-24 8 -55 11 -70 4 -21 -1 -34 -20 -53 -39 -39 -49 -24 -42 56 4 38 5 69 3 69
-3 0 -24 -29 -47 -65 -41 -62 -72 -82 -83 -52 -7 19 11 48 67 105 l51 53 -56
-7 c-65 -7 -77 2 -57 43 14 30 43 35 101 18 l28 -8 -6 71 c-7 63 -5 72 14 91
24 24 37 26 44 9z m-459 -266 c3 -5 1 -37 -4 -72 -5 -35 -8 -66 -6 -67 2 -2
24 29 50 68 32 48 52 69 64 67 35 -7 23 -42 -35 -107 l-57 -64 51 7 c57 7 69
0 59 -39 -10 -38 -37 -47 -87 -30 -23 8 -44 14 -45 12 -2 -2 1 -32 7 -66 8
-53 7 -67 -6 -88 -9 -14 -24 -23 -33 -21 -15 3 -17 15 -14 78 l4 75 -49 -70
c-53 -77 -83 -95 -83 -49 0 21 15 44 58 87 l57 59 -57 -5 c-58 -6 -58 -6 -58
22 0 15 9 36 20 46 18 16 22 16 65 1 l47 -15 -7 70 c-6 59 -4 73 10 90 19 20
40 25 49 11z m-460 -283 c0 -13 -3 -49 -7 -79 l-7 -54 44 65 c49 72 70 94 86
84 23 -14 7 -50 -51 -110 l-60 -63 60 5 c60 6 61 5 61 -19 0 -14 -9 -33 -20
-43 -19 -18 -23 -18 -71 -3 l-50 17 5 -27 c18 -98 18 -109 -7 -137 -37 -44
-49 -26 -42 58 l7 72 -46 -67 c-31 -46 -53 -68 -66 -68 -25 0 -28 41 -5 60 9
7 34 35 56 62 l41 48 -56 -6 c-55 -7 -56 -6 -56 18 0 13 6 32 13 43 14 18 28
18 96 -1 l23 -7 -7 71 c-6 64 -5 72 15 92 26 26 45 21 44 -11z m-460 -248 c3
-5 2 -38 -3 -73 -5 -34 -7 -65 -6 -66 2 -2 25 28 51 67 50 76 84 94 84 45 0
-17 -18 -44 -57 -86 l-58 -60 55 4 c49 3 55 1 58 -18 2 -11 -6 -31 -16 -44
-18 -23 -19 -23 -67 -7 -27 10 -49 16 -51 14 -1 -1 3 -30 8 -65 8 -53 7 -67
-6 -88 -18 -26 -44 -32 -51 -11 -3 7 -2 40 3 75 5 34 7 62 6 62 -2 0 -22 -28
-45 -62 -24 -35 -47 -66 -53 -70 -22 -15 -36 -8 -36 18 0 17 18 44 58 86 l57
60 -55 -3 c-53 -4 -55 -3 -58 22 -2 15 5 32 17 43 19 17 23 17 67 2 26 -9 48
-16 49 -16 1 0 -3 29 -8 65 -8 54 -7 69 7 90 17 25 40 33 50 16z"/>
</g>
</svg>
